<svg width="152" height="37" viewBox="0 0 152 37" fill="none" xmlns="http://www.w3.org/2000/svg">
<path d="M11.5768 28.6453C9.05369 28.6453 6.92632 28.2495 5.19474 27.4579C3.4879 26.6663 2.18921 25.5903 1.29869 24.2298C0.432895 22.8445 0 21.2613 0 19.4803H6.67895C6.67895 20.1234 6.85211 20.7171 7.19843 21.2613C7.56948 21.7808 8.11369 22.189 8.83106 22.4858C9.54843 22.7826 10.4637 22.9311 11.5768 22.9311C12.5416 22.9311 13.3579 22.8074 14.0258 22.56C14.7184 22.3126 15.2379 21.9663 15.5842 21.5211C15.9553 21.0758 16.1408 20.544 16.1408 19.9255C16.1408 19.134 15.8069 18.5279 15.139 18.1074C14.4711 17.6621 13.3455 17.3776 11.7624 17.254L10.0184 17.1055C7.22316 16.8582 4.99685 15.98 3.33948 14.4711C1.68211 12.9621 0.853422 10.9584 0.853422 8.46C0.853422 6.67895 1.26158 5.15764 2.0779 3.89606C2.91895 2.63448 4.09395 1.66974 5.6029 1.00184C7.11185 0.333947 8.8929 0 10.9461 0C13.1724 0 15.0524 0.371052 16.5861 1.11316C18.1445 1.85526 19.3319 2.90658 20.1482 4.26711C20.9645 5.6029 21.3726 7.16132 21.3726 8.94237H14.6937C14.6937 8.34869 14.5453 7.80448 14.2484 7.30974C13.9516 6.815 13.5187 6.43158 12.9497 6.15948C12.4055 5.86264 11.7376 5.71421 10.9461 5.71421C10.204 5.71421 9.57316 5.8379 9.05369 6.08527C8.55895 6.3079 8.17553 6.62948 7.90343 7.05C7.65606 7.47053 7.53237 7.94053 7.53237 8.46C7.53237 9.15264 7.76737 9.74632 8.23737 10.2411C8.70737 10.7358 9.52369 11.0326 10.6863 11.1316L12.4303 11.28C14.4587 11.4532 16.2521 11.8984 17.8105 12.6158C19.369 13.3084 20.5934 14.2608 21.484 15.4729C22.3745 16.685 22.8198 18.1692 22.8198 19.9255C22.8198 21.6819 22.3621 23.2155 21.4469 24.5266C20.5563 25.8377 19.27 26.8519 17.5879 27.5692C15.9305 28.2866 13.9269 28.6453 11.5768 28.6453Z" fill="white"/>
<path d="M48.7856 27.9032V7.49527C48.7856 5.09579 49.4783 3.31474 50.8635 2.15211C52.2488 0.964738 54.302 0.371052 57.023 0.371052H59.6575V5.34316H56.8746C56.2809 5.34316 55.8233 5.50395 55.5017 5.82553C55.1801 6.14711 55.0193 6.60474 55.0193 7.19843V27.9032H48.7856ZM46.4851 12.7642V7.86632H59.9543V12.7642H46.4851Z" fill="white"/>
<path d="M72.0825 28.6453C70.351 28.6453 68.8173 28.3484 67.4815 27.7548C66.1457 27.1611 65.0202 26.3571 64.1049 25.3429C63.1896 24.3287 62.4846 23.1908 61.9899 21.9292C61.5199 20.6676 61.2849 19.369 61.2849 18.0332V17.2911C61.2849 15.9058 61.5199 14.5824 61.9899 13.3208C62.4846 12.0345 63.1773 10.8966 64.0678 9.90711C64.9831 8.91764 66.0962 8.13843 67.4073 7.56948C68.7183 6.97579 70.2025 6.67895 71.8599 6.67895C74.0615 6.67895 75.9291 7.17369 77.4628 8.16317C78.9965 9.15264 80.1715 10.4637 80.9878 12.0963C81.8041 13.7042 82.2123 15.4605 82.2123 17.3653V19.5174H64.1049V15.8811H78.3162L75.9786 17.5137C75.9786 16.3511 75.8178 15.374 75.4962 14.5824C75.1994 13.7661 74.7417 13.1476 74.1233 12.7271C73.5296 12.3066 72.7752 12.0963 71.8599 12.0963C70.9694 12.0963 70.1902 12.3066 69.5223 12.7271C68.8791 13.1229 68.3844 13.7413 68.0381 14.5824C67.6917 15.3987 67.5186 16.4376 67.5186 17.6992C67.5186 18.8371 67.6794 19.8266 68.0009 20.6676C68.3225 21.484 68.8173 22.1148 69.4852 22.56C70.1531 23.0053 71.0188 23.2279 72.0825 23.2279C73.0225 23.2279 73.7894 23.0671 74.3831 22.7455C75.0015 22.424 75.4344 21.9911 75.6817 21.4469H81.8412C81.5444 22.8321 80.9507 24.069 80.0602 25.1574C79.1944 26.2458 78.0812 27.0992 76.7207 27.7177C75.3849 28.3361 73.8389 28.6453 72.0825 28.6453Z" fill="white"/>
<path d="M100.317 27.9032L94.2689 18.33H91.5231L99.5378 7.42106H106.588L98.9813 17.6992V14.434L107.849 27.9032H100.317ZM85.7718 27.9032V0.816317H92.5249V27.9032H85.7718Z" fill="white"/>
<path d="M119.044 28.6453C117.312 28.6453 115.779 28.3484 114.443 27.7548C113.107 27.1611 111.982 26.3571 111.066 25.3429C110.151 24.3287 109.446 23.1908 108.951 21.9292C108.481 20.6676 108.246 19.369 108.246 18.0332V17.2911C108.246 15.9058 108.481 14.5824 108.951 13.3208C109.446 12.0345 110.139 10.8966 111.029 9.90711C111.944 8.91764 113.058 8.13843 114.369 7.56948C115.68 6.97579 117.164 6.67895 118.821 6.67895C121.023 6.67895 122.89 7.17369 124.424 8.16317C125.958 9.15264 127.133 10.4637 127.949 12.0963C128.766 13.7042 129.174 15.4605 129.174 17.3653V19.5174H111.066V15.8811H125.278L122.94 17.5137C122.94 16.3511 122.779 15.374 122.458 14.5824C122.161 13.7661 121.703 13.1476 121.085 12.7271C120.491 12.3066 119.737 12.0963 118.821 12.0963C117.931 12.0963 117.152 12.3066 116.484 12.7271C115.84 13.1229 115.346 13.7413 114.999 14.5824C114.653 15.3987 114.48 16.4376 114.48 17.6992C114.48 18.8371 114.641 19.8266 114.962 20.6676C115.284 21.484 115.779 22.1148 116.447 22.56C117.114 23.0053 117.98 23.2279 119.044 23.2279C119.984 23.2279 120.751 23.0671 121.344 22.7455C121.963 22.424 122.396 21.9911 122.643 21.4469H128.803C128.506 22.8321 127.912 24.069 127.022 25.1574C126.156 26.2458 125.043 27.0992 123.682 27.7177C122.346 28.3361 120.8 28.6453 119.044 28.6453Z" fill="white"/>
<path d="M132.664 36.0663V30.4263H137.377C137.945 30.4263 138.428 30.3521 138.824 30.2037C139.219 30.0553 139.541 29.8079 139.788 29.4616C140.036 29.14 140.221 28.6824 140.345 28.0887L144.946 7.42106H151.328L145.948 29.3874C145.552 31.0695 144.995 32.3929 144.278 33.3577C143.585 34.3471 142.621 35.0398 141.384 35.4356C140.172 35.8561 138.589 36.0663 136.634 36.0663H132.664ZM139.158 27.4579V22.2632H143.462V27.4579H139.158ZM136.041 27.4579L130.067 7.42106H136.82L142.423 27.4579H136.041Z" fill="white"/>
<path d="M33.9076 28.5252C34.1773 28.6774 34.4949 28.6774 34.7647 28.5252C36.4799 27.5574 42.758 23.6396 42.758 18.1386V11.38C42.758 10.974 42.5068 10.6103 42.1271 10.4667L34.6816 7.65034C34.459 7.56614 34.2133 7.56614 33.9907 7.65034L26.5452 10.4667C26.1654 10.6103 25.9142 10.974 25.9142 11.38V18.1386C25.9142 23.6396 32.1923 27.5574 33.9076 28.5252Z" fill="white"/>
</svg>
